<mxfile host="Electron" agent="Mozilla/5.0 (Windows NT 10.0; Win64; x64) AppleWebKit/537.36 (KHTML, like Gecko) draw.io/26.0.16 Chrome/132.0.6834.196 Electron/34.2.0 Safari/537.36" version="26.0.16">
  <diagram name="Page-1" id="tE3GSP45QJ0txsVd7130">
    <mxGraphModel dx="3269" dy="1242" grid="1" gridSize="10" guides="1" tooltips="1" connect="1" arrows="1" fold="1" page="1" pageScale="1" pageWidth="1169" pageHeight="1654" math="0" shadow="0">
      <root>
        <mxCell id="0" />
        <mxCell id="1" parent="0" />
        <mxCell id="VDVDFzgHB-JuVDirw6ij-2" value="&lt;font style=&quot;color: rgb(255, 128, 0);&quot;&gt;vertical cont.&lt;/font&gt;" style="rounded=0;whiteSpace=wrap;html=1;hachureGap=4;fontFamily=Architects Daughter;fontSource=https%3A%2F%2Ffonts.googleapis.com%2Fcss%3Ffamily%3DArchitects%2BDaughter;fillColor=none;strokeColor=#FF8000;strokeWidth=3;fontColor=#000000;glass=0;shadow=0;sketch=1;curveFitting=1;jiggle=2;" parent="1" vertex="1">
          <mxGeometry x="-990" y="10" width="120" height="60" as="geometry" />
        </mxCell>
        <mxCell id="VDVDFzgHB-JuVDirw6ij-3" value="&lt;font style=&quot;color: rgb(51, 51, 255);&quot; size=&quot;1&quot;&gt;horizontal cont.&lt;/font&gt;" style="rounded=0;whiteSpace=wrap;html=1;sketch=1;hachureGap=4;jiggle=2;curveFitting=1;fontFamily=Architects Daughter;fontSource=https%3A%2F%2Ffonts.googleapis.com%2Fcss%3Ffamily%3DArchitects%2BDaughter;fillColor=none;strokeColor=#3333FF;gradientColor=none;strokeWidth=3;" parent="1" vertex="1">
          <mxGeometry x="-1150" y="10" width="120" height="60" as="geometry" />
        </mxCell>
        <mxCell id="VDVDFzgHB-JuVDirw6ij-4" value="Charts" style="rounded=0;whiteSpace=wrap;html=1;sketch=1;hachureGap=4;jiggle=2;curveFitting=1;fontFamily=Architects Daughter;fontSource=https%3A%2F%2Ffonts.googleapis.com%2Fcss%3Ffamily%3DArchitects%2BDaughter;fillColor=#f5f5f5;fontColor=#333333;strokeColor=#666666;strokeWidth=3;" parent="1" vertex="1">
          <mxGeometry x="-810" y="10" width="120" height="60" as="geometry" />
        </mxCell>
        <mxCell id="VDVDFzgHB-JuVDirw6ij-10" value="" style="rounded=0;whiteSpace=wrap;html=1;hachureGap=4;fontFamily=Architects Daughter;fontSource=https%3A%2F%2Ffonts.googleapis.com%2Fcss%3Ffamily%3DArchitects%2BDaughter;fillColor=none;strokeColor=#FF8000;strokeWidth=3;fontColor=#000000;glass=0;shadow=0;sketch=1;curveFitting=1;jiggle=2;" parent="1" vertex="1">
          <mxGeometry x="-1100" y="170" width="1740" height="930" as="geometry" />
        </mxCell>
        <mxCell id="VDVDFzgHB-JuVDirw6ij-14" value="" style="rounded=0;whiteSpace=wrap;html=1;sketch=1;hachureGap=4;jiggle=2;curveFitting=1;fontFamily=Architects Daughter;fontSource=https%3A%2F%2Ffonts.googleapis.com%2Fcss%3Ffamily%3DArchitects%2BDaughter;fillColor=none;strokeColor=#3333FF;gradientColor=none;strokeWidth=3;" parent="1" vertex="1">
          <mxGeometry x="-1070" y="180" width="1690" height="80" as="geometry" />
        </mxCell>
        <mxCell id="VDVDFzgHB-JuVDirw6ij-20" value="" style="rounded=0;whiteSpace=wrap;html=1;sketch=1;hachureGap=4;jiggle=2;curveFitting=1;fontFamily=Architects Daughter;fontSource=https%3A%2F%2Ffonts.googleapis.com%2Fcss%3Ffamily%3DArchitects%2BDaughter;fillColor=none;strokeColor=#3333FF;gradientColor=none;strokeWidth=3;" parent="1" vertex="1">
          <mxGeometry x="-1070" y="290" width="1690" height="400" as="geometry" />
        </mxCell>
        <mxCell id="VDVDFzgHB-JuVDirw6ij-21" value="" style="rounded=0;whiteSpace=wrap;html=1;sketch=1;hachureGap=4;jiggle=2;curveFitting=1;fontFamily=Architects Daughter;fontSource=https%3A%2F%2Ffonts.googleapis.com%2Fcss%3Ffamily%3DArchitects%2BDaughter;fillColor=none;strokeColor=#FF8000;gradientColor=none;strokeWidth=3;" parent="1" vertex="1">
          <mxGeometry x="-1070" y="710" width="1690" height="350" as="geometry" />
        </mxCell>
        <mxCell id="VDVDFzgHB-JuVDirw6ij-22" value="" style="rounded=0;whiteSpace=wrap;html=1;hachureGap=4;fontFamily=Architects Daughter;fontSource=https%3A%2F%2Ffonts.googleapis.com%2Fcss%3Ffamily%3DArchitects%2BDaughter;fillColor=none;strokeColor=#FF8000;strokeWidth=3;fontColor=#000000;glass=0;shadow=0;sketch=1;curveFitting=1;jiggle=2;" parent="1" vertex="1">
          <mxGeometry x="-1050" y="310" width="750" height="370" as="geometry" />
        </mxCell>
        <mxCell id="VDVDFzgHB-JuVDirw6ij-25" value="" style="rounded=0;whiteSpace=wrap;html=1;sketch=1;hachureGap=4;jiggle=2;curveFitting=1;fontFamily=Architects Daughter;fontSource=https%3A%2F%2Ffonts.googleapis.com%2Fcss%3Ffamily%3DArchitects%2BDaughter;fillColor=none;strokeColor=#3333FF;gradientColor=none;strokeWidth=3;" parent="1" vertex="1">
          <mxGeometry x="-1030" y="350" width="710" height="150" as="geometry" />
        </mxCell>
        <mxCell id="VDVDFzgHB-JuVDirw6ij-26" value="" style="rounded=0;whiteSpace=wrap;html=1;sketch=1;hachureGap=4;jiggle=2;curveFitting=1;fontFamily=Architects Daughter;fontSource=https%3A%2F%2Ffonts.googleapis.com%2Fcss%3Ffamily%3DArchitects%2BDaughter;fillColor=none;strokeColor=#3333FF;gradientColor=none;strokeWidth=3;" parent="1" vertex="1">
          <mxGeometry x="-1030" y="510" width="710" height="150" as="geometry" />
        </mxCell>
        <mxCell id="VDVDFzgHB-JuVDirw6ij-27" value="" style="rounded=0;whiteSpace=wrap;html=1;sketch=1;hachureGap=4;jiggle=2;curveFitting=1;fontFamily=Architects Daughter;fontSource=https%3A%2F%2Ffonts.googleapis.com%2Fcss%3Ffamily%3DArchitects%2BDaughter;fillColor=none;strokeColor=#FF8000;gradientColor=none;strokeWidth=3;" parent="1" vertex="1">
          <mxGeometry x="-270" y="310" width="870" height="360" as="geometry" />
        </mxCell>
        <mxCell id="VDVDFzgHB-JuVDirw6ij-28" value="" style="rounded=0;whiteSpace=wrap;html=1;sketch=1;hachureGap=4;jiggle=2;curveFitting=1;fontFamily=Architects Daughter;fontSource=https%3A%2F%2Ffonts.googleapis.com%2Fcss%3Ffamily%3DArchitects%2BDaughter;fillColor=none;strokeColor=#3333FF;gradientColor=none;strokeWidth=3;" parent="1" vertex="1">
          <mxGeometry x="-1050" y="760" width="1640" height="280" as="geometry" />
        </mxCell>
        <mxCell id="VDVDFzgHB-JuVDirw6ij-32" value="" style="rounded=0;whiteSpace=wrap;html=1;hachureGap=4;fontFamily=Architects Daughter;fontSource=https%3A%2F%2Ffonts.googleapis.com%2Fcss%3Ffamily%3DArchitects%2BDaughter;fillColor=none;strokeColor=#FF8000;strokeWidth=3;fontColor=#000000;glass=0;shadow=0;sketch=1;curveFitting=1;jiggle=2;" parent="1" vertex="1">
          <mxGeometry x="-1010" y="360" width="210" height="130" as="geometry" />
        </mxCell>
        <mxCell id="VDVDFzgHB-JuVDirw6ij-33" value="" style="rounded=0;whiteSpace=wrap;html=1;hachureGap=4;fontFamily=Architects Daughter;fontSource=https%3A%2F%2Ffonts.googleapis.com%2Fcss%3Ffamily%3DArchitects%2BDaughter;fillColor=none;strokeColor=#FF8000;strokeWidth=3;fontColor=#000000;glass=0;shadow=0;sketch=1;curveFitting=1;jiggle=2;" parent="1" vertex="1">
          <mxGeometry x="-780" y="360" width="210" height="130" as="geometry" />
        </mxCell>
        <mxCell id="VDVDFzgHB-JuVDirw6ij-34" value="" style="rounded=0;whiteSpace=wrap;html=1;hachureGap=4;fontFamily=Architects Daughter;fontSource=https%3A%2F%2Ffonts.googleapis.com%2Fcss%3Ffamily%3DArchitects%2BDaughter;fillColor=none;strokeColor=#FF8000;strokeWidth=3;fontColor=#000000;glass=0;shadow=0;sketch=1;curveFitting=1;jiggle=2;" parent="1" vertex="1">
          <mxGeometry x="-550" y="360" width="210" height="130" as="geometry" />
        </mxCell>
        <mxCell id="VDVDFzgHB-JuVDirw6ij-35" value="&lt;span style=&quot;font-size: 19px;&quot;&gt;Chart&lt;/span&gt;" style="rounded=0;whiteSpace=wrap;html=1;sketch=1;hachureGap=4;jiggle=2;curveFitting=1;fontFamily=Architects Daughter;fontSource=https%3A%2F%2Ffonts.googleapis.com%2Fcss%3Ffamily%3DArchitects%2BDaughter;fillColor=#f5f5f5;fontColor=#333333;strokeColor=#666666;strokeWidth=3;" parent="1" vertex="1">
          <mxGeometry x="200" y="360" width="340" height="280" as="geometry" />
        </mxCell>
        <mxCell id="VDVDFzgHB-JuVDirw6ij-38" value="&lt;span style=&quot;font-size: 19px;&quot;&gt;Chart&lt;/span&gt;" style="rounded=0;whiteSpace=wrap;html=1;sketch=1;hachureGap=4;jiggle=2;curveFitting=1;fontFamily=Architects Daughter;fontSource=https%3A%2F%2Ffonts.googleapis.com%2Fcss%3Ffamily%3DArchitects%2BDaughter;fillColor=#f5f5f5;fontColor=#333333;strokeColor=#666666;strokeWidth=3;" parent="1" vertex="1">
          <mxGeometry x="-1030" y="780" width="520" height="240" as="geometry" />
        </mxCell>
        <mxCell id="VDVDFzgHB-JuVDirw6ij-39" value="&lt;span style=&quot;font-size: 19px;&quot;&gt;Chart&lt;/span&gt;" style="rounded=0;whiteSpace=wrap;html=1;sketch=1;hachureGap=4;jiggle=2;curveFitting=1;fontFamily=Architects Daughter;fontSource=https%3A%2F%2Ffonts.googleapis.com%2Fcss%3Ffamily%3DArchitects%2BDaughter;fillColor=#f5f5f5;fontColor=#333333;strokeColor=#666666;strokeWidth=3;" parent="1" vertex="1">
          <mxGeometry x="-470" y="780" width="500" height="240" as="geometry" />
        </mxCell>
        <mxCell id="VDVDFzgHB-JuVDirw6ij-40" value="&lt;span style=&quot;font-size: 19px;&quot;&gt;Chart&lt;/span&gt;" style="rounded=0;whiteSpace=wrap;html=1;sketch=1;hachureGap=4;jiggle=2;curveFitting=1;fontFamily=Architects Daughter;fontSource=https%3A%2F%2Ffonts.googleapis.com%2Fcss%3Ffamily%3DArchitects%2BDaughter;fillColor=#f5f5f5;fontColor=#333333;strokeColor=#666666;strokeWidth=3;" parent="1" vertex="1">
          <mxGeometry x="100" y="780" width="470" height="240" as="geometry" />
        </mxCell>
        <mxCell id="VDVDFzgHB-JuVDirw6ij-41" value="&lt;span style=&quot;font-size: 19px;&quot;&gt;KPI&lt;/span&gt;" style="rounded=0;whiteSpace=wrap;html=1;sketch=1;hachureGap=4;jiggle=2;curveFitting=1;fontFamily=Architects Daughter;fontSource=https%3A%2F%2Ffonts.googleapis.com%2Fcss%3Ffamily%3DArchitects%2BDaughter;fillColor=#f5f5f5;fontColor=#333333;strokeColor=#666666;strokeWidth=3;" parent="1" vertex="1">
          <mxGeometry x="-1000" y="370" width="190" height="45" as="geometry" />
        </mxCell>
        <mxCell id="VDVDFzgHB-JuVDirw6ij-42" value="&lt;span style=&quot;font-size: 19px;&quot;&gt;Chart&lt;/span&gt;" style="rounded=0;whiteSpace=wrap;html=1;sketch=1;hachureGap=4;jiggle=2;curveFitting=1;fontFamily=Architects Daughter;fontSource=https%3A%2F%2Ffonts.googleapis.com%2Fcss%3Ffamily%3DArchitects%2BDaughter;fillColor=#f5f5f5;fontColor=#333333;strokeColor=#666666;strokeWidth=3;" parent="1" vertex="1">
          <mxGeometry x="-1000" y="430" width="190" height="45" as="geometry" />
        </mxCell>
        <mxCell id="VDVDFzgHB-JuVDirw6ij-43" value="&lt;span style=&quot;font-size: 19px;&quot;&gt;KPI&lt;/span&gt;" style="rounded=0;whiteSpace=wrap;html=1;sketch=1;hachureGap=4;jiggle=2;curveFitting=1;fontFamily=Architects Daughter;fontSource=https%3A%2F%2Ffonts.googleapis.com%2Fcss%3Ffamily%3DArchitects%2BDaughter;fillColor=#f5f5f5;fontColor=#333333;strokeColor=#666666;strokeWidth=3;" parent="1" vertex="1">
          <mxGeometry x="-540" y="370" width="190" height="45" as="geometry" />
        </mxCell>
        <mxCell id="VDVDFzgHB-JuVDirw6ij-44" value="&lt;span style=&quot;font-size: 19px;&quot;&gt;Chart&lt;/span&gt;" style="rounded=0;whiteSpace=wrap;html=1;sketch=1;hachureGap=4;jiggle=2;curveFitting=1;fontFamily=Architects Daughter;fontSource=https%3A%2F%2Ffonts.googleapis.com%2Fcss%3Ffamily%3DArchitects%2BDaughter;fillColor=#f5f5f5;fontColor=#333333;strokeColor=#666666;strokeWidth=3;" parent="1" vertex="1">
          <mxGeometry x="-540" y="430" width="190" height="45" as="geometry" />
        </mxCell>
        <mxCell id="VDVDFzgHB-JuVDirw6ij-47" value="&lt;span style=&quot;font-size: 19px;&quot;&gt;Chart&lt;/span&gt;" style="rounded=0;whiteSpace=wrap;html=1;sketch=1;hachureGap=4;jiggle=2;curveFitting=1;fontFamily=Architects Daughter;fontSource=https%3A%2F%2Ffonts.googleapis.com%2Fcss%3Ffamily%3DArchitects%2BDaughter;fillColor=#f5f5f5;fontColor=#333333;strokeColor=#666666;strokeWidth=3;" parent="1" vertex="1">
          <mxGeometry x="-770" y="372.5" width="190" height="45" as="geometry" />
        </mxCell>
        <mxCell id="VDVDFzgHB-JuVDirw6ij-48" value="&lt;span style=&quot;font-size: 19px;&quot;&gt;Chart&lt;/span&gt;" style="rounded=0;whiteSpace=wrap;html=1;sketch=1;hachureGap=4;jiggle=2;curveFitting=1;fontFamily=Architects Daughter;fontSource=https%3A%2F%2Ffonts.googleapis.com%2Fcss%3Ffamily%3DArchitects%2BDaughter;fillColor=#f5f5f5;fontColor=#333333;strokeColor=#666666;strokeWidth=3;" parent="1" vertex="1">
          <mxGeometry x="-770" y="432.5" width="190" height="45" as="geometry" />
        </mxCell>
        <mxCell id="VDVDFzgHB-JuVDirw6ij-49" value="&lt;span style=&quot;font-size: 19px;&quot;&gt;Chart&lt;/span&gt;" style="rounded=0;whiteSpace=wrap;html=1;sketch=1;hachureGap=4;jiggle=2;curveFitting=1;fontFamily=Architects Daughter;fontSource=https%3A%2F%2Ffonts.googleapis.com%2Fcss%3Ffamily%3DArchitects%2BDaughter;fillColor=#f5f5f5;fontColor=#333333;strokeColor=#666666;strokeWidth=3;" parent="1" vertex="1">
          <mxGeometry x="-1010" y="520" width="300" height="130" as="geometry" />
        </mxCell>
        <mxCell id="VDVDFzgHB-JuVDirw6ij-50" value="&lt;span style=&quot;font-size: 19px;&quot;&gt;Chart&lt;/span&gt;" style="rounded=0;whiteSpace=wrap;html=1;sketch=1;hachureGap=4;jiggle=2;curveFitting=1;fontFamily=Architects Daughter;fontSource=https%3A%2F%2Ffonts.googleapis.com%2Fcss%3Ffamily%3DArchitects%2BDaughter;fillColor=#f5f5f5;fontColor=#333333;strokeColor=#666666;strokeWidth=3;" parent="1" vertex="1">
          <mxGeometry x="-650" y="520" width="300" height="130" as="geometry" />
        </mxCell>
        <mxCell id="VDVDFzgHB-JuVDirw6ij-51" value="&lt;font style=&quot;font-size: 29px;&quot; color=&quot;#333333&quot;&gt;Overview&amp;nbsp;&lt;/font&gt;" style="text;html=1;align=center;verticalAlign=middle;whiteSpace=wrap;rounded=0;fontFamily=Architects Daughter;fontSource=https%3A%2F%2Ffonts.googleapis.com%2Fcss%3Ffamily%3DArchitects%2BDaughter;" parent="1" vertex="1">
          <mxGeometry x="-1020" y="310" width="190" height="30" as="geometry" />
        </mxCell>
        <mxCell id="VDVDFzgHB-JuVDirw6ij-52" value="&lt;font style=&quot;font-size: 20px;&quot;&gt;Logo&lt;/font&gt;" style="rounded=0;whiteSpace=wrap;html=1;sketch=1;hachureGap=4;jiggle=2;curveFitting=1;fontFamily=Architects Daughter;fontSource=https%3A%2F%2Ffonts.googleapis.com%2Fcss%3Ffamily%3DArchitects%2BDaughter;fillColor=#f5f5f5;fontColor=#333333;strokeColor=#666666;strokeWidth=3;" parent="1" vertex="1">
          <mxGeometry x="-1040" y="190" width="300" height="60" as="geometry" />
        </mxCell>
        <mxCell id="VDVDFzgHB-JuVDirw6ij-53" value="&lt;font style=&quot;font-size: 20px;&quot;&gt;Filters&lt;/font&gt;" style="rounded=0;whiteSpace=wrap;html=1;sketch=1;hachureGap=4;jiggle=2;curveFitting=1;fontFamily=Architects Daughter;fontSource=https%3A%2F%2Ffonts.googleapis.com%2Fcss%3Ffamily%3DArchitects%2BDaughter;fillColor=#f5f5f5;fontColor=#333333;strokeColor=#666666;strokeWidth=3;" parent="1" vertex="1">
          <mxGeometry x="280" y="190" width="320" height="60" as="geometry" />
        </mxCell>
        <mxCell id="VDVDFzgHB-JuVDirw6ij-55" value="&lt;font style=&quot;font-size: 29px;&quot; color=&quot;#333333&quot;&gt; Time &amp;amp; Distance Trends&lt;/font&gt;" style="text;html=1;align=center;verticalAlign=middle;whiteSpace=wrap;rounded=0;fontFamily=Architects Daughter;fontSource=https%3A%2F%2Ffonts.googleapis.com%2Fcss%3Ffamily%3DArchitects%2BDaughter;" parent="1" vertex="1">
          <mxGeometry x="-260" y="310" width="450" height="30" as="geometry" />
        </mxCell>
        <mxCell id="VDVDFzgHB-JuVDirw6ij-58" value="&lt;font style=&quot;font-size: 29px;&quot; color=&quot;#333333&quot;&gt;Revenue &amp;amp; Pricing Trends&lt;/font&gt;" style="text;html=1;align=center;verticalAlign=middle;whiteSpace=wrap;rounded=0;fontFamily=Architects Daughter;fontSource=https%3A%2F%2Ffonts.googleapis.com%2Fcss%3Ffamily%3DArchitects%2BDaughter;" parent="1" vertex="1">
          <mxGeometry x="-1000" y="720" width="390" height="30" as="geometry" />
        </mxCell>
        <mxCell id="pgDR8_dSmhPLRK4nY4TC-1" value="" style="rounded=0;whiteSpace=wrap;html=1;hachureGap=4;fontFamily=Architects Daughter;fontSource=https%3A%2F%2Ffonts.googleapis.com%2Fcss%3Ffamily%3DArchitects%2BDaughter;fillColor=none;strokeColor=#FF8000;strokeWidth=3;fontColor=#000000;glass=0;shadow=0;sketch=1;curveFitting=1;jiggle=2;" vertex="1" parent="1">
          <mxGeometry x="-250" y="350" width="400" height="300" as="geometry" />
        </mxCell>
        <mxCell id="pgDR8_dSmhPLRK4nY4TC-2" value="&lt;span style=&quot;font-size: 19px;&quot;&gt;Chart&lt;/span&gt;" style="rounded=0;whiteSpace=wrap;html=1;sketch=1;hachureGap=4;jiggle=2;curveFitting=1;fontFamily=Architects Daughter;fontSource=https%3A%2F%2Ffonts.googleapis.com%2Fcss%3Ffamily%3DArchitects%2BDaughter;fillColor=#f5f5f5;fontColor=#333333;strokeColor=#666666;strokeWidth=3;" vertex="1" parent="1">
          <mxGeometry x="-235" y="366.25" width="355" height="117.5" as="geometry" />
        </mxCell>
        <mxCell id="pgDR8_dSmhPLRK4nY4TC-3" value="&lt;span style=&quot;font-size: 19px;&quot;&gt;Chart&lt;/span&gt;" style="rounded=0;whiteSpace=wrap;html=1;sketch=1;hachureGap=4;jiggle=2;curveFitting=1;fontFamily=Architects Daughter;fontSource=https%3A%2F%2Ffonts.googleapis.com%2Fcss%3Ffamily%3DArchitects%2BDaughter;fillColor=#f5f5f5;fontColor=#333333;strokeColor=#666666;strokeWidth=3;" vertex="1" parent="1">
          <mxGeometry x="-235" y="500" width="365" height="130" as="geometry" />
        </mxCell>
        <mxCell id="pgDR8_dSmhPLRK4nY4TC-4" value="" style="rounded=0;whiteSpace=wrap;html=1;hachureGap=4;fontFamily=Architects Daughter;fontSource=https%3A%2F%2Ffonts.googleapis.com%2Fcss%3Ffamily%3DArchitects%2BDaughter;fillColor=none;strokeColor=#FF8000;strokeWidth=3;fontColor=#000000;glass=0;shadow=0;sketch=1;curveFitting=1;jiggle=2;" vertex="1" parent="1">
          <mxGeometry x="170" y="350" width="400" height="300" as="geometry" />
        </mxCell>
        <mxCell id="pgDR8_dSmhPLRK4nY4TC-5" value="&lt;font style=&quot;font-size: 30px;&quot;&gt;Flights Dashboard&amp;nbsp;&lt;/font&gt;" style="text;html=1;align=center;verticalAlign=middle;whiteSpace=wrap;rounded=0;fontFamily=Architects Daughter;fontSource=https%3A%2F%2Ffonts.googleapis.com%2Fcss%3Ffamily%3DArchitects%2BDaughter;" vertex="1" parent="1">
          <mxGeometry x="-420" y="50" width="510" height="90" as="geometry" />
        </mxCell>
      </root>
    </mxGraphModel>
  </diagram>
</mxfile>
